Simulation
nRows=23
nColumns=15
endheader
time  TH_x TH_y TH_z SC_y  SC_z  SC_x  AC_y  AC_z  AC_x  GH_y  GH_z  GH_yy  EL_x  PS_y
5.382082397003745  0.000000  0.000000  0.000000  -36.50542911905673  8.657000498503866  2.44554653865733  51.70412796895165  15.077900788465248  4.261110106093913  11.329849580107302  79.89193315905737  -13.72855130961324  13.454941018733214  120.000000
5.422247191011236  0.000000  0.000000  0.000000  -36.40299660436792  8.59155391023596  2.931990630442309  51.788530652054625  14.836614904315852  3.9565395812908064  11.287292862881113  79.766217464978  -13.723719336485734  13.477026319529575  120.000000
5.4624119850187265  0.000000  0.000000  0.000000  -36.19582857291253  8.480295138353087  3.239546226258739  51.88342994860895  14.58800659499116  3.6808078040925887  11.274487106346378  79.41751362721475  -13.521201790454235  13.41848408850243  120.000000
5.502576779026217  0.000000  0.000000  0.000000  -35.88348755897095  8.323406519221324  3.3537182578549745  51.98865943049484  14.328119445283798  3.438924556210128  11.2903714971084  78.82763260186132  -13.135209872947984  13.295274179221844  120.000000
5.542741573033708  0.000000  0.000000  0.000000  -35.467509789039696  8.120866371284889  3.264337723559042  52.10385851752349  14.053803749503563  3.2370506249947333  11.330480587127338  77.97739884587665  -12.58572963170277  13.129773429006821  120.000000
5.582906367041199  0.000000  0.000000  0.000000  -34.95200941769707  7.872735595151383  2.967110849570794  52.22734875258757  13.763878689188177  3.082327320160086  11.387151061296011  76.8490273282722  -11.895783149242714  12.946476989459827  120.000000
5.623071161048689  0.000000  0.000000  0.000000  -34.34424572313765  7.5799586399527765  2.464739551978898  52.35536144228994  13.460313419567026  2.9826898364548886  11.450283798247227  75.42866920863186  -11.088083401132579  12.767731137198204  120.000000
5.66323595505618  0.000000  0.000000  0.000000  -33.65432475334072  7.245075393885548  1.7675700952571605  52.482115277909465  13.148814516892104  2.9460384530079535  11.508370615485607  73.70844171893769  -10.182262056787827  12.610360940954081  120.000000
5.70340074906367  0.000000  0.000000  0.000000  -32.89460177904673  6.872744142677939  0.8935650405660944  52.6006829342928  12.838260122754814  2.979233915865114  11.54983554838099  71.68754348466825  -9.19302170127552  12.483865112751324  120.000000
5.743565543071161  0.000000  0.000000  0.000000  -32.07856965650334  6.469979174867938  -0.13249338425769758  52.704333130003455  12.539451248795125  3.087013810121766  11.564379354897591  69.3724958790255  -8.129497256596148  12.390506480109826  120.000000
5.7837303370786515  0.000000  0.000000  0.000000  -31.219767596406907  6.046119759118216  -1.280275015805081  52.78812292757262  12.263501520458597  3.2711416588409192  11.544158302539003  66.77681654903591  -6.995709664909431  12.326745654010233  120.000000
5.823895131086142  0.000000  0.000000  0.000000  -30.331129049596267  5.6124814237864245  -2.515860901837336  52.85000726508487  12.020317687625374  3.5301850695463566  11.484605911883678  63.92029144080676  -5.791553436177906  12.285311971571653  120.000000
5.864059925093633  0.000000  0.000000  0.000000  -29.424882939778886  5.181583295028254  -3.8037647103652903  52.891291121226686  11.817190290756184  3.8594696960066655  11.38457769078787  60.82804187645173  -4.514098510402805  12.257356675324228  120.000000
5.904224719101124  0.000000  0.000000  0.000000  -28.513441556200576  4.7663750756052625  -5.109069051479299  52.91623706269362  11.658104070546518  4.2519301725676995  11.24624026555465  57.529850768954624  -3.15882540096644  12.23429305785608  120.000000
5.944389513108614  0.000000  0.000000  0.000000  -27.610016099081733  4.379863960230489  -6.399221438485015  52.931113448337754  11.54414347435592  4.698488965660377  11.073959061133854  54.05990487286286  -1.7204785119493402  12.209005081294446  120.000000
5.984554307116105  0.000000  0.000000  0.000000  -26.72958099129261  4.034714037575815  -7.644062396500353  52.943019640521804  11.473269155333744  5.188353611566388  10.873200575616814  50.45624226758696  -0.19361013841197663  12.176731675838928  120.000000
6.024719101123596  0.000000  0.000000  0.000000  -25.888838168477868  3.742320146596026  -8.816617867859321  52.958134208829854  11.441398200515621  5.709918799111753  10.649148391455842  46.75973998643635  1.427211444934771  12.13533392036778  120.000000
6.064883895131086  0.000000  0.000000  0.000000  -25.105110470131205  3.5128804417642714  -9.89238713391665  52.98115669058933  11.44362738547548  6.250129491093904  10.405085539065587  43.01244764616008  3.147528982006218  12.085545309713734  120.000000
6.1050486891385765  0.000000  0.000000  0.000000  -24.39454419535129  3.3554416548630406  -10.849215700419077  53.01642536379893  11.475480274406507  6.794255111428329  10.142540318953843  39.256086640476994  4.972432223560238  12.031271932799719  120.000000
6.145213483146067  0.000000  0.000000  0.000000  -23.769869352497885  3.275605779009716  -11.668240282661918  53.06816756938086  11.534331919592907  7.3276076587527035  9.862753570354583  35.52993688263889  6.904964958117354  11.980103758077682  120.000000
6.185378277153558  0.000000  0.000000  0.000000  -23.24034687800971  3.274906104553028  -12.333857006289477  53.140572382982825  11.619065590665436  7.837403935098691  9.566754354632783  31.86899118528826  8.946051423835454  11.943047960540937  120.000000
6.225543071161049  0.000000  0.000000  0.000000  -22.81203497770691  3.3518804964956277  -12.83452691497832  53.23761801506083  11.730571585749653  8.31288668614795  9.254805081082619  28.303830315252302  11.094867684387662  11.933077000201065  120.000000
6.265707865168539  0.000000  0.000000  0.000000  -22.487328448156262  3.502023234133621  -13.162912358194188  53.36276323677194  11.871597316660115  8.745308875788838  8.92637283413138  24.86067113499519  13.34868600742987  11.963827565097288  120.000000
